HIERARCHY
ROOT newVegas:Hips
{
	OFFSET 0.000000 96.479958 0.000000
	CHANNELS 6 Xposition Yposition Zposition Xrotation Yrotation Zrotation
	JOINT newVegas:Pelvis
	{
		OFFSET 0.000000 0.000000 0.000000
		CHANNELS 3 Xrotation Yrotation Zrotation
		JOINT newVegas:LeftUpLeg
		{
			OFFSET 18.735201 -5.666702 -4.541200
			CHANNELS 3 Xrotation Yrotation Zrotation
			JOINT newVegas:LeftLeg
			{
				OFFSET -0.021200 -31.938179 0.493100
				CHANNELS 3 Xrotation Yrotation Zrotation
				JOINT newVegas:LeftFoot
				{
					OFFSET 0.021200 -31.938179 -4.336299
					CHANNELS 3 Xrotation Yrotation Zrotation
					JOINT newVegas:LeftToeBase
					{
						OFFSET 0.943001 -26.722000 15.023500
						CHANNELS 3 Xrotation Yrotation Zrotation
						End Site
						{
							OFFSET 0.000000 30.670183 0.000000
						}
					}
				}
				JOINT newVegas:Left_PantLeg
				{
					OFFSET 0.663870 -9.044666 -1.108900
					CHANNELS 3 Xrotation Yrotation Zrotation
					End Site
					{
						OFFSET 1.415995 20.635357 0.000000
					}
				}
			}
		}
		JOINT newVegas:RightUpLeg
		{
			OFFSET -18.735201 -5.666702 -4.541200
			CHANNELS 3 Xrotation Yrotation Zrotation
			JOINT newVegas:RightLeg
			{
				OFFSET 0.018946 -31.938133 0.493100
				CHANNELS 3 Xrotation Yrotation Zrotation
				JOINT newVegas:RightFoot
				{
					OFFSET -0.018946 -31.938126 -4.336299
					CHANNELS 3 Xrotation Yrotation Zrotation
					JOINT newVegas:RightToeBase
					{
						OFFSET -0.943001 -26.722004 15.023500
						CHANNELS 3 Xrotation Yrotation Zrotation
						End Site
						{
							OFFSET 0.000000 30.670187 0.000000
						}
					}
				}
				JOINT newVegas:Right_PantLeg
				{
					OFFSET -0.661674 -9.044716 -1.108900
					CHANNELS 3 Xrotation Yrotation Zrotation
					End Site
					{
						OFFSET -1.415958 20.635269 0.000000
					}
				}
			}
		}
	}
	JOINT newVegas:Spine
	{
		OFFSET 0.000000 10.199997 -0.299500
		CHANNELS 3 Xrotation Yrotation Zrotation
		JOINT newVegas:Spine1
		{
			OFFSET 0.000000 11.900002 -1.516600
			CHANNELS 3 Xrotation Yrotation Zrotation
			JOINT newVegas:Spine2
			{
				OFFSET 0.000000 13.600006 -2.842500
				CHANNELS 3 Xrotation Yrotation Zrotation
				JOINT newVegas:Neck
				{
					OFFSET 0.000000 9.624100 -2.890100
					CHANNELS 3 Xrotation Yrotation Zrotation
					JOINT newVegas:Head
					{
						OFFSET 0.000000 14.068802 -1.351900
						CHANNELS 3 Xrotation Yrotation Zrotation
						JOINT newVegas:Hair_Back
						{
							OFFSET 0.000000 3.231903 -17.524799
							CHANNELS 3 Xrotation Yrotation Zrotation
							End Site
							{
								OFFSET 0.000000 19.849884 0.000000
							}
						}
						JOINT newVegas:Hair_Front
						{
							OFFSET 0.000000 31.260406 4.573800
							CHANNELS 3 Xrotation Yrotation Zrotation
							JOINT newVegas:Hair_Front1
							{
								OFFSET 0.000000 2.284103 11.993300
								CHANNELS 3 Xrotation Yrotation Zrotation
								JOINT newVegas:Hair_Front2
								{
									OFFSET 0.000000 2.284103 11.993300
									CHANNELS 3 Xrotation Yrotation Zrotation
									End Site
									{
										OFFSET 0.000000 12.208862 0.000000
									}
								}
							}
						}
						JOINT newVegas:Jowel
						{
							OFFSET 0.000000 -7.458206 6.864100
							CHANNELS 3 Xrotation Yrotation Zrotation
							End Site
							{
								OFFSET 0.000000 19.849884 0.000000
							}
						}
					}
				}
				JOINT newVegas:LeftShoulder
				{
					OFFSET 15.263000 10.923401 -0.547700
					CHANNELS 3 Xrotation Yrotation Zrotation
					JOINT newVegas:LeftArm
					{
						OFFSET 25.438599 -2.830597 -13.032500
						CHANNELS 3 Xrotation Yrotation Zrotation
						JOINT newVegas:LeftForeArm
						{
							OFFSET 29.960503 0.000000 0.000000
							CHANNELS 3 Xrotation Yrotation Zrotation
							JOINT newVegas:LeftHand
							{
								OFFSET 27.849251 0.000000 0.000000
								CHANNELS 3 Xrotation Yrotation Zrotation
								JOINT newVegas:LeftHandThumb1
								{
									OFFSET 4.487587 -3.305161 6.305391
									CHANNELS 3 Xrotation Yrotation Zrotation
									JOINT newVegas:LeftHandThumb2
									{
										OFFSET 5.480453 -3.164139 3.164143
										CHANNELS 3 Xrotation Yrotation Zrotation
										JOINT newVegas:LeftHandThumb3
										{
											OFFSET 5.159721 -2.978973 2.978967
											CHANNELS 3 Xrotation Yrotation Zrotation
											End Site
											{
												OFFSET 2.494507 5.926697 1.738678
											}
										}
									}
								}
								JOINT newVegas:LeftHandIndex1
								{
									OFFSET 18.578728 -0.527832 5.208049
									CHANNELS 3 Xrotation Yrotation Zrotation
									JOINT newVegas:LeftHandIndex2
									{
										OFFSET 3.192009 0.000000 0.000000
										CHANNELS 3 Xrotation Yrotation Zrotation
										JOINT newVegas:LeftHandIndex3
										{
											OFFSET 3.835129 0.000000 0.000000
											CHANNELS 3 Xrotation Yrotation Zrotation
											End Site
											{
												OFFSET -0.034599 3.816971 0.371180
											}
										}
									}
								}
								JOINT newVegas:LeftHandMiddle1
								{
									OFFSET 18.476105 0.000000 0.000000
									CHANNELS 3 Xrotation Yrotation Zrotation
									JOINT newVegas:LeftHandMiddle2
									{
										OFFSET 3.324875 0.000000 0.000000
										CHANNELS 3 Xrotation Yrotation Zrotation
										JOINT newVegas:LeftHandMiddle3
										{
											OFFSET 4.596550 0.000000 0.000000
											CHANNELS 3 Xrotation Yrotation Zrotation
											End Site
											{
												OFFSET 0.057701 4.578827 0.399218
											}
										}
									}
								}
								JOINT newVegas:LeftHandRing1
								{
									OFFSET 17.732719 0.121887 -4.201567
									CHANNELS 3 Xrotation Yrotation Zrotation
									JOINT newVegas:LeftHandRing2
									{
										OFFSET 2.733170 0.000000 0.000000
										CHANNELS 3 Xrotation Yrotation Zrotation
										JOINT newVegas:LeftHandRing3
										{
											OFFSET 3.178268 0.000000 0.000000
											CHANNELS 3 Xrotation Yrotation Zrotation
											End Site
											{
												OFFSET 0.119102 3.170624 0.185394
											}
										}
									}
								}
								JOINT newVegas:LeftHandPinky1
								{
									OFFSET 15.989624 -0.606689 -7.535461
									CHANNELS 3 Xrotation Yrotation Zrotation
									JOINT newVegas:LeftHandPinky2
									{
										OFFSET 2.538986 0.000000 0.000000
										CHANNELS 3 Xrotation Yrotation Zrotation
										JOINT newVegas:LeftHandPinky3
										{
											OFFSET 2.593102 0.000000 0.000000
											CHANNELS 3 Xrotation Yrotation Zrotation
											End Site
											{
												OFFSET -0.150902 2.584198 0.152708
											}
										}
									}
								}
							}
							JOINT newVegas:Left_Sleeve
							{
								OFFSET 0.267448 -0.649796 0.577675
								CHANNELS 3 Xrotation Yrotation Zrotation
								End Site
								{
									OFFSET 0.000000 15.991241 0.000000
								}
							}
							JOINT newVegas:Left_CapeC
							{
								OFFSET 15.715958 -8.608795 -6.935905
								CHANNELS 3 Xrotation Yrotation Zrotation
								JOINT newVegas:Left_CapeC1
								{
									OFFSET 0.000000 -8.688499 0.000000
									CHANNELS 3 Xrotation Yrotation Zrotation
									End Site
									{
										OFFSET 0.000000 8.688499 0.000000
									}
								}
							}
						}
						JOINT newVegas:Left_CapeB
						{
							OFFSET 26.118385 -8.608795 -7.079235
							CHANNELS 3 Xrotation Yrotation Zrotation
							JOINT newVegas:Left_CapeB1
							{
								OFFSET 0.000000 -8.688499 0.000000
								CHANNELS 3 Xrotation Yrotation Zrotation
								End Site
								{
									OFFSET 0.000000 8.688499 0.000000
								}
							}
						}
						JOINT newVegas:Left_CapeA
						{
							OFFSET 5.115639 -8.608795 -10.395809
							CHANNELS 3 Xrotation Yrotation Zrotation
							JOINT newVegas:Left_CapeA1
							{
								OFFSET 0.000000 -8.688499 0.000000
								CHANNELS 3 Xrotation Yrotation Zrotation
								End Site
								{
									OFFSET 0.000000 8.688499 0.000000
								}
							}
						}
					}
				}
				JOINT newVegas:RightShoulder
				{
					OFFSET -15.263000 10.923401 -0.547700
					CHANNELS 3 Xrotation Yrotation Zrotation
					JOINT newVegas:RightArm
					{
						OFFSET -25.438599 -2.830597 -13.032500
						CHANNELS 3 Xrotation Yrotation Zrotation
						JOINT newVegas:RightForeArm
						{
							OFFSET -29.960503 0.000000 0.000000
							CHANNELS 3 Xrotation Yrotation Zrotation
							JOINT newVegas:RightHand
							{
								OFFSET -27.849251 0.000000 0.000000
								CHANNELS 3 Xrotation Yrotation Zrotation
								JOINT newVegas:RightHandThumb1
								{
									OFFSET -4.487587 -3.305161 6.305391
									CHANNELS 3 Xrotation Yrotation Zrotation
									JOINT newVegas:RightHandThumb2
									{
										OFFSET -5.480453 -3.164139 3.164143
										CHANNELS 3 Xrotation Yrotation Zrotation
										JOINT newVegas:RightHandThumb3
										{
											OFFSET -5.159721 -2.978973 2.978967
											CHANNELS 3 Xrotation Yrotation Zrotation
											End Site
											{
												OFFSET -2.494507 5.926697 1.738678
											}
										}
									}
								}
								JOINT newVegas:RightHandIndex1
								{
									OFFSET -18.578728 -0.527832 5.208049
									CHANNELS 3 Xrotation Yrotation Zrotation
									JOINT newVegas:RightHandIndex2
									{
										OFFSET -3.192009 0.000000 0.000000
										CHANNELS 3 Xrotation Yrotation Zrotation
										JOINT newVegas:RightHandIndex3
										{
											OFFSET -3.835129 0.000000 0.000000
											CHANNELS 3 Xrotation Yrotation Zrotation
											End Site
											{
												OFFSET 0.034599 3.816971 0.371180
											}
										}
									}
								}
								JOINT newVegas:RightHandMiddle1
								{
									OFFSET -18.476105 0.000000 0.000000
									CHANNELS 3 Xrotation Yrotation Zrotation
									JOINT newVegas:RightHandMiddle2
									{
										OFFSET -3.324875 0.000000 0.000000
										CHANNELS 3 Xrotation Yrotation Zrotation
										JOINT newVegas:RightHandMiddle3
										{
											OFFSET -4.596550 0.000000 0.000000
											CHANNELS 3 Xrotation Yrotation Zrotation
											End Site
											{
												OFFSET -0.057701 4.578827 0.399218
											}
										}
									}
								}
								JOINT newVegas:RightHandRing1
								{
									OFFSET -17.732719 0.121887 -4.201567
									CHANNELS 3 Xrotation Yrotation Zrotation
									JOINT newVegas:RightHandRing2
									{
										OFFSET -2.733170 0.000000 0.000000
										CHANNELS 3 Xrotation Yrotation Zrotation
										JOINT newVegas:RightHandRing3
										{
											OFFSET -3.178268 0.000000 0.000000
											CHANNELS 3 Xrotation Yrotation Zrotation
											End Site
											{
												OFFSET -0.119102 3.170624 0.185394
											}
										}
									}
								}
								JOINT newVegas:RightHandPinky1
								{
									OFFSET -15.989624 -0.606689 -7.535461
									CHANNELS 3 Xrotation Yrotation Zrotation
									JOINT newVegas:RightHandPinky2
									{
										OFFSET -2.538986 0.000000 0.000000
										CHANNELS 3 Xrotation Yrotation Zrotation
										JOINT newVegas:RightHandPinky3
										{
											OFFSET -2.593102 0.000000 0.000000
											CHANNELS 3 Xrotation Yrotation Zrotation
											End Site
											{
												OFFSET 0.150902 2.584198 0.152708
											}
										}
									}
								}
							}
							JOINT newVegas:Right_CapeC
							{
								OFFSET -15.715958 -8.608795 -6.935905
								CHANNELS 3 Xrotation Yrotation Zrotation
								JOINT newVegas:Right_CapeC1
								{
									OFFSET 0.000000 -8.688499 0.000000
									CHANNELS 3 Xrotation Yrotation Zrotation
									End Site
									{
										OFFSET 0.000000 8.688499 0.000000
									}
								}
							}
							JOINT newVegas:Right_Sleeve
							{
								OFFSET -0.267448 -0.649994 0.577675
								CHANNELS 3 Xrotation Yrotation Zrotation
								End Site
								{
									OFFSET 0.000000 15.991302 0.000000
								}
							}
						}
						JOINT newVegas:Right_CapeA
						{
							OFFSET -5.115540 -8.608795 -10.395824
							CHANNELS 3 Xrotation Yrotation Zrotation
							JOINT newVegas:Right_CapeA1
							{
								OFFSET 0.000000 -8.688499 0.000000
								CHANNELS 3 Xrotation Yrotation Zrotation
								End Site
								{
									OFFSET 0.000000 8.688499 0.000000
								}
							}
						}
						JOINT newVegas:Right_CapeB
						{
							OFFSET -26.118187 -8.608795 -7.079266
							CHANNELS 3 Xrotation Yrotation Zrotation
							JOINT newVegas:Right_CapeB1
							{
								OFFSET 0.000000 -8.688499 0.000000
								CHANNELS 3 Xrotation Yrotation Zrotation
								End Site
								{
									OFFSET 0.000000 8.688499 0.000000
								}
							}
						}
					}
				}
				JOINT newVegas:Left_Collar
				{
					OFFSET 18.625099 8.655502 8.828100
					CHANNELS 3 Xrotation Yrotation Zrotation
					JOINT newVegas:Left_Collar1
					{
						OFFSET 14.783401 10.540405 -1.259500
						CHANNELS 3 Xrotation Yrotation Zrotation
						End Site
						{
							OFFSET 0.000000 18.199875 0.000000
						}
					}
				}
				JOINT newVegas:Collar_Back
				{
					OFFSET 0.000000 15.630707 -20.132601
					CHANNELS 3 Xrotation Yrotation Zrotation
					End Site
					{
						OFFSET 0.000000 22.523010 0.000000
					}
				}
				JOINT newVegas:Left_Peck
				{
					OFFSET 17.239599 -5.132599 25.482599
					CHANNELS 3 Xrotation Yrotation Zrotation
					End Site
					{
						OFFSET 0.000000 22.523010 0.000000
					}
				}
				JOINT newVegas:Right_Peck
				{
					OFFSET -17.239599 -5.132202 25.482599
					CHANNELS 3 Xrotation Yrotation Zrotation
					End Site
					{
						OFFSET 0.000000 22.523010 0.000000
					}
				}
				JOINT newVegas:Right_Collar
				{
					OFFSET -18.625099 8.655792 8.828100
					CHANNELS 3 Xrotation Yrotation Zrotation
					JOINT newVegas:Right_Collar1
					{
						OFFSET -14.783401 10.539993 -1.259500
						CHANNELS 3 Xrotation Yrotation Zrotation
						End Site
						{
							OFFSET 0.000000 18.199631 0.000000
						}
					}
				}
			}
		}
		JOINT newVegas:Belly
		{
			OFFSET 0.000000 -6.540398 9.014299
			CHANNELS 3 Xrotation Yrotation Zrotation
			End Site
			{
				OFFSET 0.000000 11.566666 0.000000
			}
		}
	}
	JOINT newVegas:ElvisFacialAnim_Joint
	{
		OFFSET 1.000000 -95.330101 -8.825800
		CHANNELS 3 Xrotation Yrotation Zrotation
		End Site
		{
			OFFSET 0.000000 35.315800 0.000000
		}
	}
}
MOTION
Frames: 4
Frame Time: 0.016667
7.382190 20.109253 180.443787 -98.552321 -0.080080 -0.064916 0.000000 -0.000000 -0.000000 -52.582918 -46.912953 26.636232 103.281913 -12.544486 5.573268 17.652298 -3.411620 -25.160158 0.000002 -0.000001 0.000000 -0.000000 -0.000001 0.000000 -55.188215 15.587552 -19.497832 96.866528 8.115239 -4.020021 9.715573 2.024868 19.530253 0.000001 -0.000000 0.000001 -0.000002 -0.000001 -0.000003 3.641100 -0.745668 0.543583 0.996818 -0.409160 0.102272 1.002254 -0.404640 0.123115 4.746705 -0.340966 0.001556 4.746701 -0.340966 0.001557 0.000000 0.000000 -0.000000 4.746680 -0.340964 0.001556 4.746730 -0.340969 0.001557 -0.000001 -0.000000 -0.000000 0.000000 0.000000 0.000000 -0.224978 -17.471177 -6.131979 63.391464 -14.457680 -43.758017 0.000002 -33.190365 -0.000002 11.926583 0.396541 4.407993 -18.975538 -6.392781 8.507243 7.278160 22.325624 2.208017 -0.000000 -0.000001 -0.000001 -1.359255 -16.895769 -9.169185 0.574338 2.531671 -25.560062 0.000001 -0.000000 0.000000 0.066807 2.541858 -1.771542 0.574338 2.531634 -25.560069 0.000002 0.000002 -0.000000 -0.079272 11.343945 1.376915 0.156704 1.347257 -13.267759 0.000001 -0.000001 -0.000000 -1.005490 24.263584 3.994955 0.021166 0.498118 -4.866739 0.000000 -0.000002 0.000000 -0.000001 -0.000000 -0.000001 -0.000001 -0.000000 -0.000001 -0.000002 0.000000 -0.000001 -0.000001 -0.000002 0.000001 -0.000001 -0.000003 0.000000 -0.000001 -0.000002 0.000001 -0.000001 -0.000003 0.000002 -2.454926 7.297285 14.160517 82.050625 23.802221 19.508786 0.000002 33.367390 -0.000002 -15.931030 26.703857 -8.895983 7.833045 7.095074 7.571908 7.285893 -22.249527 -2.728459 -0.000000 -0.000001 0.000001 0.350982 12.645972 48.306414 0.520623 -2.141532 27.324915 -0.000002 -0.000002 0.000001 1.687079 -5.825070 49.552237 0.000001 -0.000000 0.000015 -0.000002 0.000000 -0.000001 7.431442 -12.945093 39.159131 -0.000005 0.000000 0.000011 0.000001 0.000001 0.000002 -2.798297 -28.992343 29.298397 -0.000005 0.000008 0.000062 0.000000 0.000002 -0.000002 -0.000001 -0.000001 -0.000001 -0.000001 -0.000001 -0.000001 -0.000001 -0.000001 -0.000001 -0.000000 -0.000001 0.000000 -0.000000 0.000000 0.000000 -0.000000 -0.000001 0.000000 -0.000000 -0.000000 0.000000 -0.000000 0.000000 0.000000 -0.000000 0.000000 0.000000 -0.000000 0.000000 0.000000 -0.000000 0.000000 0.000000 -0.000000 0.000000 0.000000 -0.000000 0.000000 0.000000 -0.000000 0.000000 0.000000 -0.000000 -0.000000 -0.000000 0.000000 -0.000000 -0.000000 
7.513393 20.035988 180.322830 -98.539009 0.096035 -0.002328 0.000001 -0.000000 -0.000000 -53.234477 -46.850064 26.181239 103.293429 -12.155581 5.613157 17.712344 -3.438555 -25.329002 0.000001 -0.000004 -0.000000 0.000001 -0.000002 -0.000003 -54.118939 14.906659 -20.300417 95.955866 7.829010 -4.045995 8.189149 1.932863 20.384718 -0.000001 -0.000000 0.000001 -0.000002 0.000002 0.000001 3.846564 -0.740357 0.526707 1.031032 -0.407030 0.091107 1.036528 -0.402723 0.114033 4.930746 -0.348234 0.011052 4.930746 -0.348234 0.011052 0.000001 -0.000000 -0.000000 4.930761 -0.348236 0.011053 4.930774 -0.348234 0.011053 0.000001 0.000000 -0.000000 0.000001 -0.000000 -0.000000 -0.240326 -17.364778 -6.480453 63.299126 -14.213862 -43.254099 -0.000003 -33.210832 -0.000002 11.916998 0.404477 4.405475 -18.975522 -6.392781 8.507240 7.278169 22.325622 2.208015 0.000002 0.000000 -0.000004 -1.359251 -16.895764 -9.169185 0.574339 2.531663 -25.560065 -0.000001 -0.000000 -0.000001 0.066807 2.541852 -1.771546 0.574340 2.531641 -25.560059 0.000002 -0.000001 -0.000000 -0.079271 11.343927 1.376909 0.156706 1.347272 -13.267765 -0.000000 -0.000002 -0.000001 -1.005492 24.263591 3.994955 0.021168 0.498104 -4.866734 -0.000000 -0.000003 -0.000001 0.000002 -0.000003 -0.000001 0.000002 -0.000003 -0.000001 0.000001 -0.000003 -0.000001 -0.000000 0.000000 -0.000001 -0.000000 -0.000001 0.000000 -0.000000 0.000000 -0.000001 -0.000000 -0.000000 0.000000 -2.482191 7.018731 14.624709 81.478522 23.186641 19.645586 0.000003 33.245874 -0.000002 -15.507289 26.798145 -8.793872 7.793401 7.101456 7.515300 7.283418 -22.228250 -2.727028 -0.000000 -0.000001 0.000001 0.335957 12.653740 48.176429 0.520439 -2.141207 27.320395 0.000001 -0.000002 0.000001 1.669395 -5.810004 49.433364 0.000006 0.000003 0.000032 0.000001 0.000001 0.000000 7.397305 -12.931432 39.055875 -0.000004 -0.000004 -0.000001 0.000000 -0.000001 0.000002 -2.810838 -28.967457 29.197597 0.000002 -0.001259 0.015464 0.000002 0.000003 -0.000003 -0.000000 0.000000 0.000000 -0.000000 0.000000 0.000000 -0.000000 0.000000 0.000000 0.000000 0.000000 -0.000000 0.000000 0.000001 -0.000001 0.000000 0.000000 -0.000000 0.000000 0.000001 -0.000001 -0.000000 -0.000000 -0.000000 -0.000000 -0.000000 -0.000000 -0.000000 -0.000000 -0.000000 -0.000000 -0.000000 -0.000000 -0.000000 -0.000000 -0.000000 -0.000000 -0.000000 -0.000000 -0.000000 -0.000000 -0.000000 0.000000 -0.000000 -0.000000 0.000001 -0.000000 -0.000000 
7.624781 19.963524 180.205963 -98.528375 0.259061 0.083209 -0.000000 -0.000000 -0.000000 -53.894881 -46.741645 25.756800 103.303633 -11.812607 5.634270 17.805306 -3.458091 -25.447994 0.000001 -0.000001 -0.000002 -0.000000 0.000002 0.000003 -52.976901 14.136934 -21.079408 94.936563 7.506141 -4.079436 6.644244 1.910312 21.245437 -0.000001 0.000000 0.000001 -0.000001 0.000001 -0.000002 4.140892 -0.736420 0.484391 1.137666 -0.405697 0.070828 1.143166 -0.402001 0.095219 5.090384 -0.349235 0.019897 5.090371 -0.349234 0.019898 0.000000 -0.000000 -0.000000 5.090444 -0.349235 0.019898 5.090309 -0.349233 0.019897 -0.000000 0.000000 -0.000000 0.000000 -0.000000 -0.000000 -0.154410 -16.831186 -6.895302 63.080540 -13.982382 -42.252855 -0.000009 -33.293784 0.000001 11.914769 0.448059 4.394564 -18.975526 -6.392805 8.507237 7.278157 22.325638 2.208027 0.000003 0.000004 -0.000001 -1.359251 -16.895776 -9.169189 0.574343 2.531659 -25.560055 0.000001 -0.000001 0.000002 0.066804 2.541837 -1.771549 0.574337 2.531653 -25.560067 0.000001 0.000000 -0.000002 -0.079272 11.343904 1.376908 0.156711 1.347293 -13.267761 0.000001 -0.000001 0.000000 -1.005492 24.263567 3.994952 0.021170 0.498117 -4.866731 0.000001 0.000003 0.000001 -0.000002 -0.000002 -0.000000 -0.000002 -0.000002 -0.000000 -0.000003 -0.000001 0.000000 -0.000002 -0.000001 0.000000 -0.000002 -0.000002 0.000001 -0.000002 -0.000001 0.000000 -0.000002 -0.000001 0.000001 -2.516774 6.886644 15.038912 80.629147 22.829684 19.944864 0.000001 32.748339 -0.000001 -14.761296 26.600062 -8.650803 7.677672 7.119795 7.350151 7.276352 -22.167345 -2.722949 0.000000 -0.000001 0.000001 0.293485 12.676139 47.797493 0.519948 -2.140227 27.307009 -0.000002 0.000003 -0.000000 1.618788 -5.766374 49.086971 0.000003 0.000011 0.000021 0.000000 -0.000000 0.000002 7.298860 -12.892069 38.754862 0.000003 -0.000003 0.000032 0.000001 0.000001 0.000000 -2.846868 -28.895447 28.904169 0.000007 -0.004948 0.060526 0.000002 0.000002 -0.000004 -0.000001 0.000002 0.000000 -0.000000 0.000001 -0.000000 -0.000001 0.000002 0.000000 0.000001 0.000005 -0.000000 0.000001 0.000006 -0.000001 0.000001 0.000005 -0.000000 0.000001 0.000006 -0.000001 -0.000000 -0.000000 -0.000000 -0.000000 -0.000000 -0.000000 -0.000000 -0.000000 -0.000000 -0.000000 -0.000000 -0.000000 -0.000000 -0.000000 -0.000000 -0.000000 -0.000000 -0.000000 -0.000000 -0.000000 -0.000000 -0.000000 0.000000 -0.000000 -0.000000 -0.000000 -0.000000 
7.709889 19.889679 180.100235 -98.530328 0.402848 0.188956 0.000000 0.000000 -0.000000 -54.545908 -46.594116 25.375451 103.318994 -11.518138 5.634121 17.926714 -3.469568 -25.512355 0.000001 0.000002 0.000001 -0.000003 0.000001 -0.000000 -51.731498 13.281464 -21.868739 93.792499 7.296688 -4.093308 5.052309 1.827634 22.215506 -0.000003 -0.000000 0.000000 -0.000001 -0.000002 -0.000003 4.408223 -0.745111 0.420197 1.255846 -0.410343 0.044730 1.261415 -0.407324 0.070598 5.218794 -0.344440 0.027517 5.218811 -0.344440 0.027517 0.000000 0.000000 -0.000000 5.218831 -0.344442 0.027518 5.218853 -0.344438 0.027517 0.000001 -0.000000 0.000000 0.000000 0.000000 -0.000000 -0.073221 -16.364822 -7.317480 62.845834 -13.725589 -41.337227 0.000007 -33.322164 0.000003 11.894093 0.459388 4.390757 -18.975526 -6.392777 8.507233 7.278170 22.325616 2.208012 0.000002 -0.000000 -0.000001 -1.359248 -16.895759 -9.169182 0.574341 2.531660 -25.560062 0.000001 0.000001 0.000000 0.066810 2.541839 -1.771548 0.574339 2.531653 -25.560060 0.000002 -0.000002 -0.000003 -0.079273 11.343935 1.376909 0.156707 1.347276 -13.267759 0.000002 0.000001 0.000002 -1.005491 24.263578 3.994951 0.021168 0.498116 -4.866734 0.000001 0.000000 -0.000000 -0.000001 0.000002 -0.000000 -0.000001 0.000002 -0.000000 -0.000002 0.000003 -0.000000 -0.000002 0.000000 -0.000002 -0.000002 -0.000001 -0.000003 -0.000002 0.000000 -0.000002 -0.000002 0.000000 -0.000001 -2.562795 6.924872 15.366536 79.650777 22.623111 20.419424 0.000002 32.127536 -0.000003 -13.938561 26.344893 -8.468984 7.490622 7.148990 7.083554 7.265192 -22.071353 -2.716526 0.000001 -0.000002 -0.000001 0.227446 12.712863 47.186451 0.519140 -2.138647 27.285069 -0.000001 -0.000002 0.000002 1.539450 -5.696209 48.528327 0.000004 0.000006 0.000067 -0.000000 -0.000000 0.000004 7.142420 -12.828721 38.269485 0.000003 0.000007 0.000018 0.000001 -0.000001 -0.000001 -2.903375 -28.780484 28.431810 0.000023 -0.010870 0.133266 -0.000002 -0.000000 -0.000001 -0.000000 0.000002 0.000000 -0.000000 0.000000 -0.000000 -0.000000 0.000002 -0.000000 -0.000000 -0.000001 0.000001 -0.000000 0.000000 0.000001 -0.000000 -0.000001 0.000001 -0.000000 -0.000000 0.000001 0.000000 -0.000000 0.000000 0.000000 -0.000000 0.000000 0.000000 -0.000000 0.000000 0.000000 -0.000000 0.000000 0.000000 -0.000000 0.000000 0.000000 -0.000000 0.000000 0.000000 -0.000000 0.000000 0.000000 0.000000 -0.000000 0.000000 0.000000 -0.000000 
